<svg xmlns="http://www.w3.org/2000/svg" viewBox="0 0 59 44.7"><title>air conditioner
</title><g id="Layer_2" data-name="Layer 2"><g id="Layer_1-2" data-name="Layer 1"><g id="air_conditioner_" data-name="air conditioner
"><path d="M50.5,26.52H8.5A8.51,8.51,0,0,1,0,18V8.5A8.51,8.51,0,0,1,8.5,0h42A8.51,8.51,0,0,1,59,8.5V18A8.51,8.51,0,0,1,50.5,26.52ZM8.5,5A3.5,3.5,0,0,0,5,8.5V18a3.5,3.5,0,0,0,3.5,3.5h42A3.5,3.5,0,0,0,54,18V8.5A3.5,3.5,0,0,0,50.5,5Z"/><path d="M45.5,26.52A2.5,2.5,0,0,1,43,24v-6.5H16V24a2.5,2.5,0,0,1-5,0V15a2.5,2.5,0,0,1,2.5-2.5h32A2.5,2.5,0,0,1,48,15v9A2.5,2.5,0,0,1,45.5,26.52Z"/><path d="M33.78,44.7a2.5,2.5,0,0,1-2.5-2.5V33.38a2.5,2.5,0,1,1,5,0V42.2A2.5,2.5,0,0,1,33.78,44.7Z"/><path d="M25.22,44.7a2.5,2.5,0,0,1-2.5-2.5V33.38a2.5,2.5,0,1,1,5,0V42.2A2.5,2.5,0,0,1,25.22,44.7Z"/><path d="M48.57,44.7a2.18,2.18,0,0,1-.44,0A10.12,10.12,0,0,1,39.93,33a2.5,2.5,0,1,1,4.92.87A5.12,5.12,0,0,0,49,39.74a2.5,2.5,0,0,1-.43,5Z"/><path d="M10.43,44.7a2.5,2.5,0,0,1-.43-5,5.11,5.11,0,0,0,4.15-5.92A2.5,2.5,0,0,1,19.07,33a10.13,10.13,0,0,1-8.2,11.72A3.25,3.25,0,0,1,10.43,44.7Z"/></g></g></g></svg>